{"title":"Toy.Story.3.2010.DVDSCR.2D.XviD-Ice team.","uid":5715249,"size":745433580,"categoryP":"video","categoryS":"movies","magnet":"?xt=urn:btih:61dde081fb9ce1daf653946616b03b1ea5c7df4c&amp;dn=Toy.Story.3.2010.DVDSCR.2D.XviD-Ice+team.&amp;tr=udp%3A%2F%2Ftracker.openbittorrent.com%3A80&amp;tr=udp%3A%2F%2Fopen.demonii.com%3A1337&amp;tr=udp%3A%2F%2Ftracker.coppersurfer.tk%3A6969&amp;tr=udp%3A%2F%2Fexodus.desync.com%3A6969","seeders":0,"leechers":0,"uploader":"snilloc","files":7,"time":1280065610,"description":"GENRE                            : Animation | Adventure | Comedy Family\nIDMB                             : http://www.imdb.com/title/tt0435761/\n\nFormat/Info                      : Audio Video Interleave\nFile size                        : 701 MiB\nDuration                         : 1h 41mn\nOverall bit rate                 : 965 Kbps\nWriting application              : VirtualDubMod 1.5.10.2 (build 2542/release)\nWriting library                  : VirtualDubMod build 2542/release\n\nVideo\nID                               : 0\nFormat                           : MPEG-4 Visual\nFormat profile                   : AdvancedSimple@L5\nFormat settings, BVOP            : Yes\nFormat settings, QPel            : No\nFormat settings, GMC             : No warppoints\nFormat settings, Matrix          : Custom\nMuxing mode                      : Packed bitstream\nCodec ID                         : XVID\nCodec ID/Hint                    : XviD\nDuration                         : 1h 41mn\nBit rate                         : 835 Kbps\nWidth                            : 720 pixels\nHeight                           : 304 pixels\nDisplay aspect ratio             : 2.35:1\nFrame rate                       : 29.970 fps\nResolution                       : 24 bits\nColorimetry                      : 4:2:0\nScan type                        : Progressive\nBits/(Pixel*Frame)               : 0.127\nStream size                      : 607 MiB (87%)\nWriting library                  : XviD 1.2.1 (UTC 2008-12-04)\n\nAudio\nID                               : 1\nFormat                           : MPEG Audio\nFormat version                   : Version 1\nFormat profile                   : Layer 3\nCodec ID                         : 55\nCodec ID/Hint                    : MP3\nDuration                         : 1h 34mn\nBit rate mode                    : Constant\nBit rate                         : 128 Kbps\nChannel(s)                       : 2 channels\nSampling rate                    : 48.0 KHz\nResolution                       : 16 bits\nStream size                      : 86.2 MiB (12%)\nAlignment                        : Aligned on interleaves\nInterleave, duration             : 36 ms (1.08 video frame)\nInterleave, preload duration     : 504 ms\nWriting library                  : LAMELAME_MAJOR_VERSI\n\n\n\n\n\nPLOT                             : \n\nThe toys are mistakenly delivered to a day-care center instead of the attic right before Andy leaves for college, and it's up to Woody to convince the other toys that they weren't abandoned and to return home","torrent":{"xt":"urn:btih:61dde081fb9ce1daf653946616b03b1ea5c7df4c","amp;dn":"Toy.Story.3.2010.DVDSCR.2D.XviD-Ice+team.","amp;tr":["udp%3A%2F%2Ftracker.openbittorrent.com%3A80","udp%3A%2F%2Fopen.demonii.com%3A1337","udp%3A%2F%2Ftracker.coppersurfer.tk%3A6969","udp%3A%2F%2Fexodus.desync.com%3A6969"],"infoHash":"61dde081fb9ce1daf653946616b03b1ea5c7df4c","infoHashBuffer":{"type":"Buffer","data":[97,221,224,129,251,156,225,218,246,83,148,102,22,176,59,30,165,199,223,76]},"announce":[],"urlList":[]}}